<svg id="Capa_1" data-name="Capa 1" xmlns="http://www.w3.org/2000/svg" xmlns:xlink="http://www.w3.org/1999/xlink" viewBox="0 0 771 266.23"><defs><style>.cls-1,.cls-2,.cls-3{fill-rule:evenodd;}.cls-1{fill:url(#linear-gradient);}.cls-2{fill:url(#linear-gradient-2);}.cls-3{fill:url(#linear-gradient-3);}.cls-4{fill:#211915;}</style><linearGradient id="linear-gradient" x1="17" y1="204.83" x2="227.59" y2="204.83" gradientUnits="userSpaceOnUse"><stop offset="0" stop-color="#d5b411"/><stop offset="0.5" stop-color="#eedc95"/><stop offset="1" stop-color="#d5b411"/></linearGradient><linearGradient id="linear-gradient-2" x1="53.15" y1="204.77" x2="191.63" y2="204.77" xlink:href="#linear-gradient"/><linearGradient id="linear-gradient-3" x1="75.91" y1="75.8" x2="167.83" y2="75.8" xlink:href="#linear-gradient"/></defs><title>Logo de Sefar Universal</title><path class="cls-1" d="M206.37,141.44l.26,0a21,21,0,1,0-21-21c0,.09,0,.18,0,.26a105.28,105.28,0,0,0-126.78,0c0-.09,0-.17,0-.26a21,21,0,1,0-21,21l.27,0a105.28,105.28,0,0,0,0,126.77,21,21,0,1,0,20.7,21.29c0-.2,0-.41,0-.61a105.27,105.27,0,0,0,126.79,0c0,.09,0,.17,0,.25a21,21,0,1,0,21-20.94l-.27,0a105.28,105.28,0,0,0,0-126.79Zm-63.21,142L122.3,304.32l-20.87-20.86a81.49,81.49,0,0,1-57.77-57.77L22.8,204.82,43.67,184a81.46,81.46,0,0,1,57.77-57.77l20.86-20.87,20.86,20.87A81.46,81.46,0,0,1,200.92,184l20.87,20.86-20.86,20.86A81.48,81.48,0,0,1,143.16,283.46Z" transform="translate(-17 -43.9)"/><path class="cls-2" d="M135.55,137.69c-34.89-6.55-69.51,12.59-79.66,48.19-5.48,19.23-2.07,36,4.34,49.45,26.62,55.81,117.63,50.21,130.35-19.57C196.89,181.14,174.18,145,135.55,137.69Zm19.89,44.66A203.36,203.36,0,0,1,133,176.66l9.34-32.8C154.15,152.54,156,166.76,155.44,182.35Zm-35.85,23.82-6.35,22.28c-8.66-3-15.87-3.4-24.45-6.25,1.42-7.77,1.5-14.81,4.58-23.51Zm-25.1-11.42c2-8.9,5.61-15,8.51-22.39,8.68,2.16,15.11,5.56,24.08,7.57l-6.36,22.29Zm29.69,12.72,26.23,7.47a101.5,101.5,0,0,1-9.16,22.21c-8.51-2.07-14.67-5.45-23.42-7.4Q121,218.64,124.17,207.47Zm1.13-3.94,6.35-22.29c8.45,3,15.46,3.33,23.8,6.07A95.43,95.43,0,0,1,151.52,211Zm11.1-61.34c.66,9.19-5.9,22.4-8,33.15a225.91,225.91,0,0,1-22.76-7.2C113.63,155.49,122.57,144.44,136.4,142.2Zm-11.52-1.88c-7.11,5.74-17.59,14-23,26.05-8.2-2.6-14.21-6.43-21.36-9.63C92,145.33,107.3,140.8,124.87,140.32Zm-47.93,19c6.05,4.53,14.58,7.68,22.3,11.3a132.81,132.81,0,0,0-9.35,22.86L61,185.24A62.19,62.19,0,0,1,76.94,159.29Zm-17,29.87,28.85,8.23a115.45,115.45,0,0,0-4.1,24.36c-8.14-.75-17.13-3-24.25-1.94C56.9,211.44,57.4,200.87,59.92,189.16Zm1.53,34.47c7.86,1.24,14.83.87,23.23,3.08-1.35,13.25,2,23.9,5.83,34.28C75.67,251.39,65.27,239.33,61.44,223.62Zm27.34,3.55c7.53,1.63,15.1,3.33,23.14,5.87q-4.67,16.41-9.34,32.8C90.07,257.35,89.2,242.38,88.79,227.17Zm18.39,40,9.53-33.44c6.15,3.19,15.38,4.68,21.92,7.66C130.88,254.89,121.83,266,107.17,267.14Zm13.49,2.42c6.17-7.09,17-14.33,22.37-26.24,8.26,2.58,13.91,6.61,21.36,9.64C153,264.26,137.76,268.56,120.66,269.56Zm47.28-19.13c-6.24-4.44-14.63-7.68-22.3-11.32A193.56,193.56,0,0,0,155,216.25c9.3,3.1,20.75,5,28.66,8.88C179.59,235.67,174.31,244,167.95,250.43Zm17.21-30.55c-8.77-.87-19.5-5.3-29-7.57,1.68-8.28,3.55-16.69,4.11-24.35,8.3,1.05,16.94,2.67,24.25,1.94C187.87,198.14,186.87,208.81,185.15,219.88ZM160.22,183c.45-12.75-1.21-24.34-6.68-33.8,14.66,6.94,27.22,22.73,29.25,36.69C175.31,185,168.35,185.07,160.22,183Z" transform="translate(-17 -43.9)"/><path class="cls-3" d="M167.83,71.65l-12-5.91L145.06,81.2a123.53,123.53,0,0,0-16.22-1.9l0-23-13.9,0,0,23a123,123,0,0,0-16.7,2.09L87.91,66.63l-12,5.9,15.9,22.79L95,94.26a107.83,107.83,0,0,1,56.67.62l7.16-10.26h0Z" transform="translate(-17 -43.9)"/><path class="cls-4" d="M329.45,130.32q-5.68-5.91-21.88-5.93A48.11,48.11,0,0,0,294.11,126a25.05,25.05,0,0,0-8.59,4.2,14.74,14.74,0,0,0-4.54,5.63,15,15,0,0,0-1.3,5.93v5.49a12.19,12.19,0,0,0,1.46,6.06,22.73,22.73,0,0,0,3.4,4.63,14.2,14.2,0,0,0,4.05,3c1.4.68,2.54,1.2,3.4,1.58q1.29.29,6.48,2t12.16,3.91l14.43,4.48q7.45,2.31,13.29,4,11.68,3.75,18,12.71a33.78,33.78,0,0,1,6.32,19.94v13.57a35.86,35.86,0,0,1-2.11,11.42A26,26,0,0,1,352.3,246q-6.16,5.2-16.86,8.67t-27.88,3.48q-17.19,0-27.88-3.48T262.83,246a26,26,0,0,1-8.26-11.4,35.67,35.67,0,0,1-2.11-11.42v-8.38h27.23q0,10.4,5.84,16t22,5.63q15.88,0,21.72-5.34t5.83-16.33a16.81,16.81,0,0,0-2.27-9.1,23.15,23.15,0,0,0-5.18-5.93,29.45,29.45,0,0,0-7.78-4q-9.73-3.19-18.16-5.79l-14.42-4.48q-7-2.16-10.21-3a52.32,52.32,0,0,1-7.46-3.47,37.86,37.86,0,0,1-8.1-6.06,31.71,31.71,0,0,1-6.48-9.1,27.75,27.75,0,0,1-2.6-12.28V137.69q0-15,13.29-25t41.82-10a98.65,98.65,0,0,1,25,2.75A53.67,53.67,0,0,1,349.71,113a29.33,29.33,0,0,1,9.89,11.13,30.79,30.79,0,0,1,3.08,13.58v6.95H335.12A20,20,0,0,0,329.45,130.32Z" transform="translate(-17 -43.9)"/><path class="cls-4" d="M434.32,102.72q19.45,0,30.48,4.2t16.53,10q5.51,5.79,6.81,11.7a46.37,46.37,0,0,1,1.29,9.1v13.88a33.87,33.87,0,0,1-2.11,11q-2.11,6.07-9.89,13a23.6,23.6,0,0,1-8.1,5.2,68.42,68.42,0,0,1-8.1,2.6,32.94,32.94,0,0,1-8.76,1.16H427.84A22.47,22.47,0,0,0,412.92,190a17.13,17.13,0,0,0-6.49,13.57v13q0,6.93,2.92,11a16.06,16.06,0,0,0,2.92,3.48,14.72,14.72,0,0,0,4.86,2.6,34,34,0,0,0,6.65,2,51.25,51.25,0,0,0,10.53.87q8.43,0,13.29-1.58a38.64,38.64,0,0,0,6.81-2.74,15.41,15.41,0,0,0,5.84-6.95,23.06,23.06,0,0,0,1.62-8.66h27.55v6.93A29.1,29.1,0,0,1,485.7,238a32.75,32.75,0,0,1-11.51,11.56Q468.68,253,459,255.59t-24.64,2.6a100.59,100.59,0,0,1-19.13-1.59,75.73,75.73,0,0,1-14.1-4,38.87,38.87,0,0,1-9.89-5.63,45.17,45.17,0,0,1-6.48-6.36,26,26,0,0,1-5.51-17.34V137.69a44.56,44.56,0,0,1,1.29-9.24q1.3-5.77,6.81-11.56t16.53-10Q414.87,102.74,434.32,102.72Zm27.56,42.2v-2.61a21.92,21.92,0,0,0-.82-5.63,12.57,12.57,0,0,0-3.72-5.79,23.38,23.38,0,0,0-8.27-4.61q-5.36-1.88-14.1-1.89a47.91,47.91,0,0,0-14.75,1.89,26.4,26.4,0,0,0-8.75,4.47,12.48,12.48,0,0,0-4.06,5.64,17.93,17.93,0,0,0-1,5.35v30a7.11,7.11,0,0,1,2.92-4.19,17.86,17.86,0,0,1,5.18-2.46,31.92,31.92,0,0,1,5.84-1.15c1.94-.19,3.45-.29,4.53-.29H443.4a19.18,19.18,0,0,0,13-4.77,14.61,14.61,0,0,0,5.51-11.41v-2.59Z" transform="translate(-17 -43.9)"/><path class="cls-4" d="M546.81,105h27.56v20.52H546.81V255.87H519.26V125.56H498.51V105h20.75V79a46,46,0,0,1,1.29-9.1q1.29-5.93,6.81-11.71t16.53-10q11-4.18,30.48-4.19,5.19,0,9.4-.14a53.79,53.79,0,0,1,8.75.43l-6.16,20.8q-3.89.29-6.49.29c-1.73,0-3.78.1-6.16.29q-9.07,0-14.42,1.88a21.49,21.49,0,0,0-8.1,4.63A12.91,12.91,0,0,0,547.62,78a22,22,0,0,0-.81,5.63V105Z" transform="translate(-17 -43.9)"/><path class="cls-4" d="M640.5,102.72q28.53,0,41.82,10t13.3,25v85.54a35.76,35.76,0,0,1-2.11,11.42,26,26,0,0,1-8.27,11.4q-6.17,5.2-16.86,8.67t-27.88,3.48q-17.19,0-27.88-3.48T595.76,246a26,26,0,0,1-8.27-11.4,35.75,35.75,0,0,1-2.11-11.42V209.65a33.76,33.76,0,0,1,6.32-19.94q6.32-9,18-12.71,5.84-1.75,13.29-4l14.43-4.48q7-2.17,12.16-3.91t6.48-2c.87-.38,2-.9,3.4-1.58a14.26,14.26,0,0,0,4.06-3,22.7,22.7,0,0,0,3.4-4.63,12.19,12.19,0,0,0,1.46-6.06v-5.49a15,15,0,0,0-1.3-5.93,14.78,14.78,0,0,0-4.54-5.63A25.07,25.07,0,0,0,654,126a48.13,48.13,0,0,0-13.46-1.59q-16.21,0-21.88,5.93a19.94,19.94,0,0,0-5.67,14.31H585.39v-6.95a30.74,30.74,0,0,1,3.08-13.58A29.35,29.35,0,0,1,598.35,113a53.71,53.71,0,0,1,17.18-7.51A98.65,98.65,0,0,1,640.5,102.72Zm27.88,76.57a6.34,6.34,0,0,1-3.24,4.33,20.64,20.64,0,0,1-4.86,2q-4.87,1.44-10.54,3.32T639.2,192.3q-5.83,1.73-11,3.48a31,31,0,0,0-7.45,4,25.92,25.92,0,0,0-5.35,5.93,15.94,15.94,0,0,0-2.43,9.1q0,11,5.84,16.33t21.72,5.34q16.21,0,22-5.63t5.84-16Z" transform="translate(-17 -43.9)"/><path class="cls-4" d="M769.85,103q5.5,0,9.56-.15a54.46,54.46,0,0,1,8.59.43l-6.16,21.09c-2.6,0-4.76.05-6.49.15s-3.79.15-6.16.15q-8.76,0-14.1,2a24.81,24.81,0,0,0-8.27,4.77,12.45,12.45,0,0,0-3.73,5.78,21.76,21.76,0,0,0-.81,5.63v113H714.73V138a45.79,45.79,0,0,1,1.3-9.1q1.29-5.92,6.81-11.71t16.53-10Q750.39,103,769.85,103Z" transform="translate(-17 -43.9)"/><path class="cls-4" d="M281.5,294.24c0,10-6,15.2-14.1,15.2s-14.1-5.22-14.05-15.2l.09-18.13a.82.82,0,0,1,.92-.92h3.57a.82.82,0,0,1,.92.92l.09,17.53c.09,7.6,3.3,10.94,8.61,10.94s8.33-3.39,8.38-10.94l.09-17.53a.82.82,0,0,1,.92-.92h3.57a.82.82,0,0,1,.92.92Z" transform="translate(-17 -43.9)"/><path class="cls-4" d="M346.77,307.79a.82.82,0,0,1-.92.92h-5.22a1.15,1.15,0,0,1-1.1-.64l-15.06-26.41.14,26.14a.82.82,0,0,1-.92.92h-3.85a.82.82,0,0,1-.92-.92l.18-31.68a.82.82,0,0,1,.92-.92h5.45a1.15,1.15,0,0,1,1.1.64l14.56,25.36.14-25.09a.82.82,0,0,1,.92-.92h3.48a.82.82,0,0,1,.92.92Z" transform="translate(-17 -43.9)"/><path class="cls-4" d="M391.58,307.79a.82.82,0,0,1-.92.92h-3.94a.82.82,0,0,1-.92-.92l.14-31.68a.82.82,0,0,1,.92-.92h3.57a.82.82,0,0,1,.92.92Z" transform="translate(-17 -43.9)"/><path class="cls-4" d="M456.29,275.19a.71.71,0,0,1,.73,1.05L445.8,308a1,1,0,0,1-1.05.73H440a1,1,0,0,1-1.05-.73l-11.17-31.73a.71.71,0,0,1,.73-1.05h3.71a1,1,0,0,1,1.05.73l9,25.36h.27l9-25.36a1,1,0,0,1,1.05-.73Z" transform="translate(-17 -43.9)"/><path class="cls-4" d="M497.63,288.79h14a.82.82,0,0,1,.92.92v3.07a.82.82,0,0,1-.92.92h-14l0,10.12h15.84a.82.82,0,0,1,.92.92v3.07a.82.82,0,0,1-.92.92H492.87a.82.82,0,0,1-.92-.92l.18-31.68a.82.82,0,0,1,.92-.92h20.51a.82.82,0,0,1,.92.92v3.07a.82.82,0,0,1-.92.92h-16Z" transform="translate(-17 -43.9)"/><path class="cls-4" d="M556.23,294.79l.09,13a.82.82,0,0,1-.92.92h-4a.82.82,0,0,1-.92-.92l.18-31.68a.82.82,0,0,1,.92-.92h13.23c6.91,0,11.31,4.07,11.31,9.61,0,4.67-3.16,8.61-8.47,9.66L577,307.61c.41.6.18,1.1-.6,1.1h-4.76a1.27,1.27,0,0,1-1.15-.6l-8.83-13.32Zm8-4.76c4.53,0,6.55-1.79,6.55-4.81,0-3.25-2.43-5.26-6.55-5.26h-8.06l.09,10.07Z" transform="translate(-17 -43.9)"/><path class="cls-4" d="M636.59,282.93c.23.64-.09,1.05-.78,1.05h-3.39a1.15,1.15,0,0,1-1.1-.64,8.56,8.56,0,0,0-7.69-4c-4.21,0-6.09,1.74-6.09,4s2,3.75,7.74,5.49l1.46.46c7.92,2.43,10.62,6.14,10.62,10.58,0,6.14-5,9.57-12.54,9.57-8.79,0-13-5.08-14.15-9.29a.75.75,0,0,1,.82-1h3.62a1.09,1.09,0,0,1,1.05.69c1.46,2.84,4.12,4.72,8.93,4.72,4.49,0,6.68-1.37,6.68-3.94s-2-4.35-7.83-6.27l-1.65-.6c-6.41-2.11-10.12-4.76-10.35-9.57-.18-6,5.4-9.71,12.13-9.71C630.64,274.46,634.9,278.12,636.59,282.93Z" transform="translate(-17 -43.9)"/><path class="cls-4" d="M679.6,299l-3.16,9a1,1,0,0,1-1.05.73h-3.75c-.69,0-1-.41-.78-1.05l11.67-31.72a1,1,0,0,1,1.05-.73h4.35a1,1,0,0,1,1.05.73l11.67,31.72c.23.64-.09,1.05-.78,1.05h-3.8A1,1,0,0,1,695,308l-3.11-9Zm6.32-17.17h-.28l-4.3,12.27h8.88Z" transform="translate(-17 -43.9)"/><path class="cls-4" d="M757.76,303.81a.82.82,0,0,1,.92.92v3.07a.82.82,0,0,1-.92.92h-21.2a.82.82,0,0,1-.92-.92l.18-31.68a.82.82,0,0,1,.92-.92h3.57a.82.82,0,0,1,.92.92l.18,27.7Z" transform="translate(-17 -43.9)"/></svg>